PathFileType	4	(X/Y/Z)	Patient4_TMGait_0pt3_02_left_22.trc.trc
DataRate	CameraRate	NumFrames	NumMarkers	Units	OrigDataRate	OrigDataStartFrame	OrigNumFrames
51.851851851852	51.851851851852	5	33	mm	51.851851851852	18	       141
Frame#	Time	Sacral			L.Shoulder			Chest			R.Shoulder			Neck			R.ASIS			L.ASIS			R.Thigh.Superior			R.Thigh.Lateral			R.Thigh.Inferior			R.Patella			L.Thigh.Superior			L.Thigh.Lateral			L.Thigh.Inferior			L.Patella			L.Shank.Superior			L.Shank.Lateral			L.Shank.Inferior			R.Shank.Superior			R.Shank.Lateral			R.Shank.Inferior			R.Heel			R.Midfoot.Superior			R.Midfoot.Lateral			R.Toe			L.Heel			L.Midfoot.Lateral			L.Midfoot.Superior			L.Toe			L.Elbow			L.Wrist			R.Elbow			R.Wrist			
		X1	Y1	Z1	X2	Y2	Z2	X3	Y3	Z3	X4	Y4	Z4	X5	Y5	Z5	X6	Y6	Z6	X7	Y7	Z7	X8	Y8	Z8	X9	Y9	Z9	X10	Y10	Z10	X11	Y11	Z11	X12	Y12	Z12	X13	Y13	Z13	X14	Y14	Z14	X15	Y15	Z15	X16	Y16	Z16	X17	Y17	Z17	X18	Y18	Z18	X19	Y19	Z19	X20	Y20	Z20	X21	Y21	Z21	X22	Y22	Z22	X23	Y23	Z23	X24	Y24	Z24	X25	Y25	Z25	X26	Y26	Z26	X27	Y27	Z27	X28	Y28	Z28	X29	Y29	Z29	X30	Y30	Z30	X31	Y31	Z31	X32	Y32	Z32	X33	Y33	Z33	

18	43.387857142857	768.043688834423	1003.232988165933	555.445757542981	914.709860839500	1425.549935385629	345.472058378875	1044.637578559524	1358.272905716628	486.185302233638	997.982979110913	1436.656145302318	670.944888118255	929.622005261087	1491.940551626466	500.890087957005	1009.991963191917	933.599622278819	636.974961124934	959.365664546741	961.604515013348	367.431053499905	1030.936929968742	728.799535443141	595.610546005184	947.183339834559	619.059559798837	656.025265823916	1011.722163910147	567.434692703831	566.512355953513	1004.448757991182	475.909893654845	568.117215047784	1038.930296998996	774.426133106954	392.563000781228	989.321506861164	649.949268977140	312.363152465748	1090.250600107438	586.691693890226	374.098373577742	1115.545494264398	519.511513085908	366.142511817960	1092.157751651189	449.073360932995	352.696830472240	1015.471535485631	327.316651571700	295.111441597227	1094.355578749192	218.121349807027	344.528610613739	961.608964475759	390.647524871806	571.932622080975	880.101493691893	294.166659335388	633.086792763200	901.987737376803	199.414717390110	561.569347433814	744.162015130319	45.715395010267	530.692481130162	918.102228025826	96.110227131221	564.033638723739	828.481901776806	37.960852806560	603.357407272314	1036.564547583785	39.586986330919	590.669899447508	995.210332140502	44.423413523810	376.218463120473	1069.560013847964	45.599581496171	296.746414296523	1146.339719378995	117.542269084081	319.151486407870	1277.192893128250	79.070758989560	292.317426036617	780.698449549787	1091.681021478146	267.292622146861	759.033699287638	832.866433049014	287.655515656549	1134.739875400086	1120.761354550226	791.315171772772	1386.797427610641	1081.412135965318	752.137775011190	
19	43.407142857143	767.979669799441	1004.084358462474	555.328135654555	912.458820225709	1426.234995600994	344.301067701149	1043.889191963850	1358.657123825025	483.521771681210	999.269740896496	1437.106203631205	668.728555497344	929.117403276644	1492.393162343804	499.360607448390	1010.103073426265	933.671763158044	635.083340833783	957.807848176749	961.946967990028	365.720164248878	1027.537512817753	728.024504119814	594.077584543683	942.481946623900	619.544382821450	655.541323000218	1005.267160518637	566.864049094583	565.792286164439	996.631181913683	476.167547969670	567.519730446865	1035.860832627502	773.011146157525	390.376696499053	983.484367408495	648.702942163040	311.251113097937	1084.105468472772	584.506013652761	372.234550236243	1109.054654466997	518.786030181901	365.389032887562	1087.756603857554	448.882099831848	352.267493049121	1015.325885538115	324.655643769643	294.118181625579	1097.074911736264	218.002325945264	344.612842800599	954.364550833532	390.981381801857	571.734299626303	873.348663810234	294.285729024942	633.245360665356	895.589631746027	199.630154758275	561.642754526211	738.181205123432	45.436243145227	530.822723716519	912.296610620229	96.179853826741	564.199185690587	822.541586273732	37.833047572971	603.493529887729	1030.650796280750	39.744862492185	590.621636516377	1002.492716747321	42.124874001430	375.541262032817	1077.920799124072	44.356485100140	296.994964089046	1152.696624156954	118.166708531500	320.070735284386	1284.915705354631	82.423262606655	295.297219564665	771.656737107195	1095.430325244902	268.259163941604	745.672743638706	837.217591131065	289.616461015676	1143.142168451469	1125.209744015191	787.678138622708	1396.274631739805	1100.171681729585	744.965285536312	
20	43.426428571429	768.120216262701	1004.615792973218	554.904415008546	910.348414950497	1426.659420048143	342.808378626073	1043.153003728867	1358.901523630752	480.686012705208	1000.285133117859	1437.358533587317	666.268807261330	928.546491791832	1492.620904417477	497.514315825208	1010.408147625847	933.618148817333	633.061950349640	956.531812252088	961.969665385594	363.883989638138	1024.285367097523	727.136737427667	592.494469838091	937.803377485995	619.990492627651	655.008377619170	998.783164134632	566.205130324312	565.098000640027	988.744925797484	476.385416351570	566.943823269945	1033.161788253412	771.323645037208	388.072683781257	977.885856213697	647.152557683729	310.213720969871	1078.267486230463	582.145033925585	370.393672554057	1102.727494222901	517.583522406221	364.552113139358	1082.986149937410	448.107293676021	351.758640694659	1013.661471794527	322.150568048560	293.627520401438	1097.550112282996	217.579332678155	344.908884295575	947.026445557159	391.278759727427	571.527502599191	866.511953757352	294.391285572146	633.409211430966	889.126352542256	199.814456003920	561.719867899439	732.181659036741	45.098887302572	530.939707471840	906.430346853194	96.229010241175	564.354044678991	816.579728030948	37.683905651816	603.629668899757	1024.722309533208	39.935012830228	590.564193090249	1006.400881755491	40.497440747306	375.639365955427	1082.407265277819	43.486311334942	297.594814484650	1155.817857117340	118.403856933227	321.067464859293	1288.839244717891	84.457416434918	297.458171707527	763.984193887442	1098.487724208646	268.906681833414	734.906858054157	840.703599035142	290.926524240328	1150.754327775793	1129.354430496579	783.781440953146	1404.138664960834	1117.629820494813	737.958250552551	
21	43.445714285714	768.448289395448	1004.832654177061	554.177661718238	908.405261000696	1426.793487246624	340.978902467617	1042.461149852342	1358.985983019171	477.669835789384	1001.068210471171	1437.412586834352	663.562788038403	927.944081627140	1492.614061692661	495.346979475970	1010.904421630258	933.429189733457	630.920268377846	955.538932370901	961.668043516824	361.936295087231	1021.254309582893	726.134686840075	590.893987491615	933.225377409424	620.377575306734	654.416587736252	992.391642594910	565.457213462554	564.424677605543	980.939403900994	476.534731978609	566.378905677527	1030.835742165147	769.394699358975	385.693460652680	972.584223472483	645.340002598977	309.250753161916	1072.797543309051	579.678246147616	368.599385844882	1096.655073466331	515.982066384026	363.632073157809	1078.002755111334	446.796147951038	351.150137001802	1010.694662009932	319.705293579762	293.539912265799	1096.111595366425	216.742693934549	345.322789926648	939.709056579640	391.524853870062	571.294823236140	859.677698151233	294.489108126632	633.559628722859	882.643239924142	199.960013499107	561.791207738994	726.173174383875	44.727282948406	531.042125781323	900.509156194647	96.252525258419	564.488015477285	810.605704890051	37.520504259765	603.761461946912	1018.786288701173	40.143100260505	590.499978448674	1007.285409519014	39.332956773716	376.330426976439	1083.445066955229	42.745155257470	298.409152044179	1156.149524315579	118.055537315167	322.064175463662	1289.492845842131	84.945331157640	298.824982366679	757.741598394734	1100.735976452855	269.170069746951	726.733074618305	843.167649503964	291.544306487304	1157.591471437647	1133.131598099455	779.665391687478	1410.575982459968	1133.585390478817	731.146774605285	
22	43.465000000000	768.934597413783	1004.771923392021	553.160842643989	906.659727761234	1426.631273230053	338.806889306710	1041.851368413228	1358.903147985765	474.466200659471	1001.681240010440	1437.287412693100	660.608449710895	927.358055857598	1492.384130472375	492.861939709817	1011.573188844993	933.106985046154	628.667224735755	954.809905338510	961.071501228608	359.888910285209	1018.508331830796	725.028884535919	589.295783940453	928.833511099263	620.688778898268	653.744888552796	986.227331879090	564.629016020064	563.750582581207	973.380091912077	476.590011952147	565.801108647829	1028.871497442121	767.290201784236	383.267509368076	967.634689740486	643.342561600141	308.336323508859	1067.755966257368	577.195003396053	366.845333896511	1090.919850290947	514.093992580859	362.621101372819	1072.982900741657	445.051571987913	350.419897914993	1006.737330633162	317.281753912155	293.715119915253	1093.183258759527	215.476953991804	345.753642702719	932.547257563980	391.709835682499	571.013453883736	852.944099164127	294.589226683508	633.672196025614	876.194951902284	200.063242239158	561.843497038594	720.166795784334	44.352193288095	531.130566010549	894.543708976365	96.245509006232	564.588042371834	804.630408811976	37.352213657752	603.884194129459	1012.850942124851	40.350380525343	590.432691354064	1005.641328738374	38.497545521520	377.392765310728	1081.641425546665	41.975005579817	299.302453592440	1154.264760326787	117.042332287360	322.999465655979	1287.544104821793	83.836874745791	299.525901015052	752.954782351413	1102.110351397655	268.985814033628	721.134545732068	844.530330641977	291.425653552163	1163.682771403544	1136.496466608186	775.368580803014	1415.790433986783	1147.887171411123	724.545310129043	
